<svg width="26" height="22" viewBox="0 0 26 22" fill="none" xmlns="http://www.w3.org/2000/svg">
<path fill-rule="evenodd" clip-rule="evenodd" d="M0.400025 11.0002C0.400025 11.7458 1.00444 12.3502 1.75002 12.3502L20.8983 12.3502L13.4143 19.4771C12.8769 19.9938 12.8601 20.8485 13.3769 21.3859C13.8937 21.9233 14.7483 21.9401 15.2857 21.4233L25.1857 11.9733C25.4504 11.7188 25.6 11.3674 25.6 11.0002C25.6 10.633 25.4504 10.2816 25.1857 10.0271L15.2857 0.577072C14.7483 0.0603006 13.8937 0.0770576 13.3769 0.6145C12.8601 1.15194 12.8769 2.00655 13.4143 2.52332L20.8983 9.6502L1.75002 9.6502C1.00444 9.6502 0.400025 10.2546 0.400025 11.0002Z" fill="white"/>
</svg>
