<svg width="80" height="80" viewBox="0 0 80 80" fill="none" xmlns="http://www.w3.org/2000/svg">
<path d="M40 55L40 32.5M40 32.5L50 42.5M40 32.5L30 42.5M22.5 65C14.2157 65 7.5 58.2843 7.5 50C7.5 43.3568 11.8185 37.7223 17.8013 35.7506C17.6035 34.6973 17.5 33.6108 17.5 32.5C17.5 22.835 25.335 15 35 15C43.1041 15 49.9216 20.5087 51.9122 27.9858C52.8847 27.6704 53.9224 27.5 55 27.5C60.5228 27.5 65 31.9772 65 37.5C65 38.6605 64.8023 39.7748 64.4388 40.8111C69.1511 42.6015 72.5 47.1597 72.5 52.5C72.5 59.4036 66.9036 65 60 65H22.5Z" stroke="white" stroke-width="1.5" stroke-linecap="round" stroke-linejoin="round"/>
</svg>
