<svg width="36" height="36" viewBox="0 0 36 36" fill="none" xmlns="http://www.w3.org/2000/svg">
<path d="M17.4675 31.366L17.4577 31.3607L17.4237 31.3423C17.3947 31.3266 17.3534 31.3039 17.3004 31.2743C17.1944 31.2152 17.0419 31.1286 16.8494 31.0154C16.4647 30.7891 15.9198 30.4559 15.2678 30.0225C13.9661 29.1571 12.2268 27.8851 10.4829 26.2595C7.03172 23.0423 3.375 18.2627 3.375 12.375C3.375 7.98292 7.0704 4.5 11.5312 4.5C14.1546 4.5 16.5035 5.69863 18 7.57739C19.4965 5.69863 21.8454 4.5 24.4688 4.5C28.9296 4.5 32.625 7.98292 32.625 12.375C32.625 18.2627 28.9683 23.0423 25.5171 26.2595C23.7732 27.8851 22.0339 29.1571 20.7322 30.0225C20.0802 30.4559 19.5353 30.7891 19.1506 31.0154C18.9581 31.1286 18.8056 31.2152 18.6996 31.2743C18.6466 31.3039 18.6053 31.3266 18.5763 31.3423L18.5423 31.3607L18.5325 31.366L18.5284 31.3682C18.1985 31.5434 17.8015 31.5434 17.4716 31.3682L17.4675 31.366Z" fill="#16A34A"/>
</svg>
