<svg width="24" height="24" viewBox="0 0 24 24" fill="none" xmlns="http://www.w3.org/2000/svg">
<path d="M12.9008 5.6998C12.9008 5.20275 12.4978 4.7998 12.0008 4.7998C11.5037 4.7998 11.1008 5.20275 11.1008 5.6998V11.0998H5.70078C5.20373 11.0998 4.80078 11.5027 4.80078 11.9998C4.80078 12.4969 5.20372 12.8998 5.70078 12.8998L11.1008 12.8998V18.2998C11.1008 18.7969 11.5037 19.1998 12.0008 19.1998C12.4978 19.1998 12.9008 18.7969 12.9008 18.2998V12.8998H18.3008C18.7978 12.8998 19.2008 12.4969 19.2008 11.9998C19.2008 11.5027 18.7978 11.0998 18.3008 11.0998H12.9008V5.6998Z" fill="#16A34A"/>
</svg>
