<svg width="16" height="16" viewBox="0 0 16 16" fill="none" xmlns="http://www.w3.org/2000/svg">
<path fill-rule="evenodd" clip-rule="evenodd" d="M7.10078 2.1498C4.36697 2.1498 2.15078 4.366 2.15078 7.0998C2.15078 9.83361 4.36697 12.0498 7.10078 12.0498C8.46787 12.0498 9.70445 11.4965 10.601 10.6C11.4975 9.70347 12.0508 8.4669 12.0508 7.0998C12.0508 4.366 9.83459 2.1498 7.10078 2.1498ZM0.800781 7.0998C0.800781 3.62041 3.62139 0.799805 7.10078 0.799805C10.5802 0.799805 13.4008 3.62041 13.4008 7.0998C13.4008 8.59607 12.8785 9.97131 12.0073 11.0518L15.0031 14.0475C15.2667 14.3111 15.2667 14.7385 15.0031 15.0021C14.7395 15.2657 14.3121 15.2657 14.0485 15.0021L11.0527 12.0064C9.97229 12.8775 8.59705 13.3998 7.10078 13.3998C3.62139 13.3998 0.800781 10.5792 0.800781 7.0998Z" fill="white"/>
</svg>
